<svg width="16" height="16" viewBox="0 0 16 16" fill="none" xmlns="http://www.w3.org/2000/svg">
<path d="M9.86072 5.30386L6.59344 8.67106L5.1835 7.24356C4.90755 6.95943 4.46058 6.95943 4.18448 7.24356C3.90838 7.5277 3.90852 7.98792 4.18448 8.27221L6.06832 10.2119C6.23138 10.3562 6.41094 10.4259 6.59344 10.4259C6.77593 10.4259 6.9549 10.3548 7.09295 10.2128L10.8606 6.33339C11.1366 6.04925 11.1366 5.58903 10.8606 5.30474C10.5847 5.02046 10.1374 5.022 9.86072 5.30386ZM7.53535 0C3.37325 0 0 3.47327 0 7.75879C0 12.0443 3.37325 15.5176 7.53535 15.5176C11.6975 15.5176 15.0707 12.0443 15.0707 7.75879C15.0707 3.47327 11.6975 0 7.53535 0ZM7.53535 14.0628C4.15916 14.0628 1.41288 11.2348 1.41288 7.75879C1.41288 4.28279 4.15916 1.45477 7.53535 1.45477C10.9115 1.45477 13.6578 4.28279 13.6578 7.75879C13.6578 11.2348 10.9115 14.0628 7.53535 14.0628Z" fill="#C74700"/>
</svg>
